<svg width="820" height="640" viewBox="0 0 820 640" fill="none" xmlns="http://www.w3.org/2000/svg" role="img" aria-labelledby="title desc">
  <title id="title">The Money Machine</title>
  <desc id="desc">The Money Machine logo with MONEY in green and bracket mark.</desc>
  <path d="M46 130V88H214V130H150V272H110V130H46Z" fill="#F8FAFC"/>
  <path d="M236 272V88H276V166H354V88H394V272H354V204H276V272H236Z" fill="#F8FAFC"/>
  <path d="M426 272V88H624V127H466V166H584V203H466V233H626V272H426Z" fill="#F8FAFC"/>
  <path d="M40 440V288H114L170 393L225 288H298V440H258V346L195 440H143L80 346V440H40Z" fill="#59C778"/>
  <path d="M336 365C336 307 382 280 437 280C492 280 538 307 538 365C538 424 492 450 437 450C382 450 336 424 336 365ZM378 365C378 401 400 414 437 414C473 414 496 401 496 365C496 330 473 316 437 316C400 316 378 330 378 365Z" fill="#59C778"/>
  <path d="M566 440V288H625L709 399V288H749V440H695L606 325V440H566Z" fill="#59C778"/>
  <path d="M40 608V472H83L186 568V472H226V608H184L80 513V608H40Z" fill="#F8FAFC"/>
  <path d="M248 608L302 472H354L408 608H365L353 576H302L291 608H248ZM313 541H342L328 503L313 541Z" fill="#F8FAFC"/>
  <path d="M428 608V472H468V560H577V608H428Z" fill="#F8FAFC"/>
  <path d="M594 608V472H634V550L711 472H760L697 539L766 608H714L665 560L634 588V608H594Z" fill="#F8FAFC"/>
  <path d="M578 96H741V195L717 264H698V112H538L463 88H578V96Z" fill="#E2E8F0"/>
  <path d="M773 528H794C808 528 819 536 819 551C819 565 808 574 794 574H788V606H773V528ZM788 560H792C798 560 803 558 803 551C803 544 798 542 792 542H788V560Z" fill="#F8FAFC"/>
  <path d="M724 88L766 97L731 112L677 112L724 88Z" fill="#E2E8F0"/>
</svg>
